<?xml version="1.0" encoding="UTF-8" standalone="no"?>
<!-- Created with Inkscape (http://www.inkscape.org/) -->

<svg
   width="5mm"
   height="5mm"
   viewBox="0 0 5 5"
   version="1.1"
   id="svg2893"
   inkscape:version="1.2.1 (9c6d41e410, 2022-07-14)"
   sodipodi:docname="logo_mme_kicad.svg"
   xmlns:inkscape="http://www.inkscape.org/namespaces/inkscape"
   xmlns:sodipodi="http://sodipodi.sourceforge.net/DTD/sodipodi-0.dtd"
   xmlns="http://www.w3.org/2000/svg"
   xmlns:svg="http://www.w3.org/2000/svg">
  <sodipodi:namedview
     id="namedview2895"
     pagecolor="#505050"
     bordercolor="#ffffff"
     borderopacity="1"
     inkscape:showpageshadow="0"
     inkscape:pageopacity="0"
     inkscape:pagecheckerboard="1"
     inkscape:deskcolor="#505050"
     inkscape:document-units="mm"
     showgrid="false"
     inkscape:zoom="5.6159371"
     inkscape:cx="70.335546"
     inkscape:cy="71.581998"
     inkscape:window-width="3840"
     inkscape:window-height="2066"
     inkscape:window-x="-11"
     inkscape:window-y="-11"
     inkscape:window-maximized="1"
     inkscape:current-layer="layer2"
     showguides="false" />
  <defs
     id="defs2890">
    <clipPath
       clipPathUnits="userSpaceOnUse"
       id="clipPath352">
      <path
         d="M 0,0 H 841.89 V 1190.551 H 0 Z"
         id="path350" />
    </clipPath>
  </defs>
  <g
     inkscape:groupmode="layer"
     id="layer2"
     inkscape:label="F.Silkscreen"
     style="display:inline"
     transform="scale(0.39999961)">
    <path
       id="rect8124"
       style="fill:#ffffff;fill-opacity:1;stroke:none;stroke-width:0.05;stroke-opacity:1"
       d="M 0,0 V 12.500012 H 12.500012 V 0 Z M 1.6657898,0.66313783 6.2793323,7.0158506 10.83138,0.66313783 V 1.7931722 L 6.2793323,8.1460142 2.3331909,2.7087495 V 8.8519142 L 1.6657898,8.8511476 Z M 9.7995309,3.9594483 V 8.6496012 H 10.83138 V 8.8473926 H 9.3299212 V 5.3982493 L 6.2793323,9.6348122 3.2633667,5.4507009 V 4.6552713 L 6.2792033,8.8392536 Z M 4.9352283,9.3288879 c 0.125881,0 0.253554,0.030517 0.4207753,0.1006397 v 0.1888776 c -0.1510423,-0.088115 -0.2805483,-0.12777 -0.422584,-0.12777 -0.2805223,0 -0.4891173,0.1996474 -0.4891173,0.469351 0,0.2751368 0.2014623,0.4657338 0.496352,0.4657338 0.138462,0 0.289548,-0.04859 0.42801,-0.138493 v 0.192495 c -0.1204717,0.06293 -0.251751,0.107875 -0.444159,0.107875 -0.4603244,0 -0.6617163,-0.354339 -0.6617163,-0.6114618 0,-0.3740213 0.2822393,-0.6472473 0.6724393,-0.6472473 z m 3.9323179,0.00891 h 0.124153 l 0.548416,1.2335171 H 9.3602812 L 9.1965962,10.20997 H 8.6751809 l -0.1546417,0.361348 h -0.179834 z m -7.2017564,0.00724 h 0.1654937 l 0.406306,0.5034577 0.4082437,-0.5034577 h 0.163556 V 10.57132 H 2.6331725 V 9.6165976 h -0.00362 L 2.2520564,10.091244 h -0.02881 L 1.8456237,9.6165962 h -0.00362 V 10.571318 H 1.6657898 Z m 1.5685089,0 H 3.930251 V 9.5032972 H 3.4105153 v 0.3703907 h 0.501649 V 10.031947 H 3.4105153 V 10.41319 H 3.9464 v 0.15813 H 3.2342987 Z m 3.7769012,0 H 7.1765642 L 7.5829996,9.8484956 7.9911142,9.3450379 h 0.163685 V 10.57132 H 7.9785826 V 9.6165976 h -0.00362 L 7.5973369,10.091246 h -0.02881 L 7.1910339,9.6165976 h -0.00362 V 10.57132 h -0.176214 z m 2.6838153,0 H 9.8351876 L 10.666015,10.294463 V 9.3450379 H 10.83138 V 10.57132 H 10.680356 L 9.8603799,9.6273192 V 10.571318 H 9.6950152 Z M 8.9269742,9.6075542 8.7435232,10.051713 H 9.1247659 Z M 3.9035083,10.936412 c 0.053636,0 0.108325,0.0063 0.164073,0.0186 0.05617,0.01196 0.116509,0.03241 0.1811257,0.06149 v 0.14056 H 4.23734 C 4.224247,11.147507 4.205157,11.134887 4.180238,11.119347 4.155321,11.103807 4.13093,11.09082 4.106857,11.08046 4.077717,11.068107 4.044545,11.057943 4.00738,11.04997 3.970637,11.04157 3.928814,11.03744 3.8819353,11.03744 c -0.1055826,0 -0.1892283,0.03209 -0.250889,0.09625 -0.061238,0.06376 -0.091855,0.150233 -0.091855,0.259416 0,0.11516 0.032053,0.20482 0.096247,0.268975 0.064194,0.06376 0.151607,0.0956 0.262258,0.0956 0.040544,0 0.08093,-0.0038 0.121052,-0.01137 0.040544,-0.0076 0.076045,-0.01724 0.1064533,-0.0292 v -0.218203 h -0.252827 v -0.103999 h 0.3769797 v 0.381889 c -0.051524,0.02231 -0.107873,0.04192 -0.169111,0.05865 -0.060816,0.01634 -0.119719,0.02455 -0.1767337,0.02455 -0.073486,0 -0.140946,-0.0097 -0.202184,-0.02881 -0.061238,-0.01913 -0.1133723,-0.04779 -0.1564503,-0.08604 -0.0435,-0.03865 -0.076989,-0.08679 -0.10064,-0.144565 -0.02365,-0.05818 -0.035527,-0.126161 -0.035527,-0.203864 0,-0.142256 0.04393,-0.254456 0.1317746,-0.336543 0.088268,-0.08248 0.2092984,-0.123765 0.363027,-0.123765 z m 6.5820277,0 c 0.05364,0 0.108324,0.0063 0.164072,0.0186 0.05617,0.01196 0.116509,0.03241 0.181126,0.06149 v 0.14056 h -0.01137 c -0.01309,-0.0096 -0.03206,-0.02218 -0.05697,-0.03772 -0.02492,-0.01554 -0.04944,-0.02853 -0.07351,-0.03889 -0.02914,-0.01235 -0.06231,-0.02252 -0.09948,-0.03049 -0.03674,-0.0084 -0.07857,-0.01253 -0.125445,-0.01253 -0.105582,0 -0.189228,0.03209 -0.250889,0.09625 -0.06124,0.06376 -0.09186,0.150233 -0.09186,0.259416 0,0.11516 0.03218,0.20482 0.09638,0.268975 0.06419,0.06376 0.151607,0.0956 0.262258,0.0956 0.04054,0 0.0808,-0.0038 0.120923,-0.01137 0.04054,-0.0076 0.07605,-0.01724 0.106453,-0.0292 V 11.4989 h -0.252827 v -0.103999 h 0.37698 v 0.381889 c -0.05152,0.02231 -0.107873,0.04192 -0.169111,0.05865 -0.06082,0.01634 -0.119719,0.02455 -0.176734,0.02455 -0.07348,0 -0.140816,-0.0097 -0.202055,-0.02881 -0.06124,-0.01913 -0.113501,-0.04779 -0.156579,-0.08604 -0.0435,-0.03865 -0.07699,-0.08679 -0.10064,-0.144565 -0.02365,-0.05818 -0.035528,-0.126161 -0.035528,-0.203864 0,-0.142256 0.04393,-0.254456 0.131775,-0.336543 0.08827,-0.08248 0.209298,-0.123765 0.363027,-0.123765 z m -8.8139326,0.01615 h 0.6215382 v 0.105291 H 1.7970479 v 0.243784 h 0.4960937 v 0.10529 H 1.7970479 v 0.330471 H 2.2931416 V 11.84256 H 1.6716034 Z m 0.8203633,0 H 2.6865285 L 3.094514,11.679391 V 10.952562 H 3.2116902 V 11.84256 H 3.0565317 L 2.6092722,11.046484 V 11.84256 H 2.4919667 Z m 1.9367036,0 h 0.372458 v 0.09095 h -0.123507 v 0.708225 h 0.123507 v 0.09082 h -0.372458 v -0.09082 H 4.5521769 V 11.043512 H 4.4286703 Z m 0.5858813,0 h 0.1945617 l 0.4079856,0.726829 V 10.952562 H 5.7342753 V 11.84256 H 5.5791166 L 5.1318573,11.046484 V 11.84256 H 5.0145516 Z m 0.9706127,0 h 0.621409 v 0.105291 H 6.1106089 v 0.243784 h 0.4959644 v 0.10529 H 6.1106089 v 0.330471 h 0.4959644 v 0.105162 h -0.621409 z m 0.8203633,0 h 0.621409 v 0.105291 H 6.9309723 v 0.243784 h 0.4959643 v 0.10529 H 6.9309723 v 0.330471 h 0.4959643 v 0.105162 h -0.621409 z m 0.8203633,0 h 0.2641957 c 0.057015,0 0.104488,0.0037 0.142498,0.01085 0.03801,0.0068 0.07217,0.01902 0.1025776,0.03695 0.034209,0.02032 0.060835,0.04605 0.07984,0.07713 0.019427,0.03068 0.029197,0.06976 0.029197,0.117177 0,0.06415 -0.01708,0.117925 -0.051289,0.161359 -0.034209,0.04304 -0.081364,0.07549 -0.141335,0.09741 l 0.3547587,0.389124 H 8.2435529 L 7.9280682,11.488707 H 7.7513349 v 0.353854 H 7.6258902 Z m 0.8622213,0 h 0.372458 v 0.09095 h -0.123507 v 0.708225 h 0.123507 v 0.09082 h -0.372458 v -0.09082 H 8.6116189 V 11.043512 H 8.4881122 Z m 0.586011,0 h 0.1944324 l 0.4079856,0.726829 v -0.726829 h 0.117176 V 11.84256 H 9.6385589 L 9.1912992,11.046484 v 0.796076 h -0.117176 z m -1.3227876,0.101674 v 0.335897 h 0.1267363 c 0.039699,0 0.074306,-0.0032 0.1038697,-0.0096 0.029563,-0.0068 0.054624,-0.01914 0.075319,-0.03708 0.019003,-0.01674 0.03299,-0.03584 0.041858,-0.05736 0.00929,-0.02192 0.013953,-0.0496 0.013953,-0.08307 0,-0.0255 -0.00488,-0.04804 -0.0146,-0.06757 -0.00929,-0.01993 -0.024937,-0.03671 -0.046896,-0.05026 -0.01816,-0.01156 -0.039678,-0.01952 -0.064596,-0.0239 -0.024917,-0.0048 -0.054322,-0.0071 -0.088108,-0.0071 z" />
  </g>
  <g
     inkscape:label="Livello 1"
     inkscape:groupmode="layer"
     id="layer1"
     style="display:inline">
    <g
       id="g330"
       transform="matrix(0.09790502,0,0,-0.09790502,39.197928,34.598489)"
       style="fill:#000000;fill-opacity:1;stroke:none;stroke-opacity:1" />
    <g
       id="g334"
       transform="matrix(0.09790502,0,0,-0.09790502,25.117374,32.583886)"
       style="fill:#000000;fill-opacity:1;stroke:none;stroke-opacity:1" />
    <g
       id="g338"
       transform="matrix(0.09790502,0,0,-0.09790502,11.237731,37.380069)"
       style="fill:#000000;fill-opacity:1;stroke:none;stroke-opacity:1" />
    <g
       id="g342"
       transform="matrix(0.09790502,0,0,-0.09790502,43.325603,37.380069)"
       style="fill:#000000;fill-opacity:1;stroke:none;stroke-opacity:1" />
    <g
       id="g346"
       transform="matrix(0.09790502,0,0,-0.09790502,-16.218734,82.23874)"
       style="fill:#000000;fill-opacity:1;stroke:none;stroke-opacity:1">
      <g
         id="g348"
         clip-path="url(#clipPath352)"
         style="fill:#000000;fill-opacity:1;stroke:none;stroke-opacity:1">
        <g
           id="g354"
           transform="translate(384.4834,454.7327)"
           style="fill:#000000;fill-opacity:1;stroke:none;stroke-opacity:1" />
      </g>
    </g>
    <g
       id="g358"
       transform="matrix(0.09790502,0,0,-0.09790502,15.720783,37.380069)"
       style="fill:#000000;fill-opacity:1;stroke:none;stroke-opacity:1" />
    <g
       id="g362"
       transform="matrix(0.09790502,0,0,-0.09790502,32.619189,37.380069)"
       style="fill:#000000;fill-opacity:1;stroke:none;stroke-opacity:1" />
    <g
       id="g366"
       transform="matrix(0.09790502,0,0,-0.09790502,35.966689,37.351292)"
       style="fill:#000000;fill-opacity:1;stroke:none;stroke-opacity:1" />
  </g>
</svg>
